<svg width="600" height="58" viewBox="0 0 600 58" fill="none" xmlns="http://www.w3.org/2000/svg">
<path d="M575.6 11.5001V57.1001H554.7C554.7 57.1001 554.7 24.8 554.7 22.3C554.7 19.2 549.8 16.0001 543.9 19.9001C543.9 19.9001 540.4 22.7001 540.4 28.9001V56.7001H519.5V3.80005H540.7V10.1001C540.7 10.1001 556.7 1.80006 564.7 3.50006C565.2 3.20006 573.5 4.20006 575.6 11.5001Z" fill="white"/>
<path d="M503.9 11.5V57.1H483C483 57.1 483 24.1 483 22.3C483 19.2 478.1 16 472.2 19.9C472.2 19.9 468.7 22.7 468.7 28.9V56.7H447.8V3.5H469V9.79999C469 9.79999 485 1.50001 493 3.20001C493.2 3.20001 501.9 4.2 503.9 11.5Z" fill="white"/>
<path d="M276.8 57.1V3.5H298V10.8C298 10.8 311.6 2.49999 319.6 3.79999C319.6 3.79999 326.2 4.09999 330 10.8C330 10.8 342.9 1.40001 353 4.20001C353 4.20001 361.7 6.60001 362 13.2V57H340.8V23.6C340.8 23.6 340.1 18 334.5 19.8C334.5 19.8 330.3 20.5 330 25.7V57H308.8V24.3C308.8 24.3 306.4 17.7 300.8 21.5C300.8 21.5 298 23.2 298 28.8V57H276.8V57.1Z" fill="white"/>
<path d="M100.1 57.0999H118.5C130 56.7999 129.3 46.9999 129.3 46.9999V3.19995H107.4V43.2C107.4 47.4 103.6 48.0999 101.8 48.3999C101.1 48.3999 100.8 48.3999 100.8 48.3999C100.8 48.3999 100.5 48.3999 99.8 48.3999C98.1 48.3999 94.2 47.7 94.2 43.2V3.19995H72.3V46.7C72.3 46.7 71.6 56.3999 83.1 56.7999H101.5H100.1V57.0999Z" fill="white"/>
<path d="M242.4 21.8999H262.9V8.69997C262.9 8.69997 261.9 3.09996 254.2 3.09996C246.5 3.09996 222.2 3.09996 222.2 3.09996C222.2 3.09996 212.1 2.09995 210.7 9.39995V29.8999C210.7 29.8999 211 35.8 222.2 36.2H236.1C236.1 36.2 242 36.2 242.4 40C242.4 40 243.4 44.9 241.4 47C240.4 48 239.7 48.7 237.2 48.7C235.5 48.7 234.1 48 233.4 47C232.4 45.3 232.4 44.2 232.4 40.7H210.8V50.1C210.8 50.1 210.1 57.1 217.8 57.1H255C255 57.1 262 57.8 263.7 49.1V34.5C263.7 34.5 263 27.2 257.4 27.2C257.4 27.2 239 26.9 238.6 26.5C237.6 26.5 232.3 27.2 232.7 22.7V17.1C232.7 14 235.5 12.2 237.9 12.2C241 12.2 242.8 13.9 243.1 17.1L242.4 21.8999Z" fill="white"/>
<path d="M176.3 21.8999H196.8V8.69997C196.8 8.69997 195.8 3.09996 188.1 3.09996C180.4 3.09996 156.1 3.09996 156.1 3.09996C156.1 3.09996 146 2.09995 144.6 9.39995V29.8999C144.6 29.8999 144.9 35.8 156.1 36.2H170C170 36.2 175.9 36.2 176.3 40C176.3 40 177.3 44.9 175.3 47C174.3 48 173.6 48.7 171.1 48.7C169.4 48.7 168 48 167.3 47C166.3 45.3 166.3 44.2 166.3 40.7H144.7V50.1C144.7 50.1 144 57.1 151.7 57.1H188.9C188.9 57.1 195.9 57.8 197.6 49.1V34.5C197.6 34.5 196.9 27.2 191.3 27.2C191.3 27.2 172.9 26.9 172.5 26.5C171.5 26.5 166.2 27.2 166.6 22.7V17.1C166.6 14 169.4 12.2 171.8 12.2C174.9 12.2 176.7 13.9 177 17.1L176.3 21.8999Z" fill="white"/>
<path d="M28.5 34.7999H32.7C32.7 34.7999 35.1 34.7999 35.1 37.5999C35.1 40.3999 35.1 57.0999 35.1 57.0999H57.3V3.19995H35.1V22.2999C35.1 22.2999 35.1 24.6999 32.7 25.0999C32.4 25.0999 28.5 25.0999 28.5 25.0999C28.5 25.0999 25 25.0999 24.3 25.0999C21.9 25.0999 21.9 22.7 21.9 22.7V3.19995H0V56.7999H21.9C21.9 56.7999 21.9 39.7999 21.9 37.2999C21.9 34.4999 24.3 34.4999 24.3 34.4999L28.5 34.7999Z" fill="white"/>
<path d="M590.9 17.4C595.8 17.4 599.9 13.6 599.9 8.70001C599.9 3.50001 595.7 0 590.9 0C586.1 0 581.9 3.80001 581.9 8.70001C582.2 13.6 586 17.4 590.9 17.4ZM583.9 8.39999C583.9 4.19999 587 1.10001 591.2 1.10001C595 1.10001 598.5 4.19999 598.5 8.39999C598.5 12.6 595.4 15.7 591.2 15.7C587 15.7 583.9 12.5 583.9 8.39999ZM589.2 9.10001H590.9L593.7 13.6H595.4L592.6 9.10001C594 8.80001 595.4 8.09999 595.4 6.29999C595.4 4.19999 594.4 3.5 591.9 3.5H588.1V13.6H589.5V9.10001H589.2ZM589.2 7.70001V4.5H591.3C592.3 4.5 593.4 4.79999 593.4 5.89999C593.4 7.59999 592.4 7.60001 591 7.60001H589.2V7.70001Z" fill="white"/>
<path d="M412.1 29.2001V12.9001C411.8 12.2001 411.4 10.5001 408.3 10.5001H405.5H402.7C401 10.5001 398.9 10.5001 398.9 13.3001V28.3001C398.9 32.5001 401.3 32.1001 401.3 32.1001H405.1H409.3C409.7 32.4001 412.1 32.4001 412.1 29.2001ZM420.8 3.20007C435.1 2.50007 434 12.9001 434 12.9001V13.6001V57.1001H412.1V45.6001C412.1 44.6001 411.4 43.2001 409.3 43.2001H405.5C405.5 43.2001 402 43.2001 401.7 43.2001C400.7 43.2001 398.9 44.2001 398.9 45.6001V57.4001H377V13.6001C377 13.6001 376 3.20006 389.9 3.90006H392H405.2H420.9V3.20007H420.8Z" fill="white"/>
</svg>
