<svg width="601" height="58" viewBox="0 0 601 58" fill="none" xmlns="http://www.w3.org/2000/svg">
<path d="M576.3 11.5001V57.1001H555.4C555.4 57.1001 555.4 24.8 555.4 22.3C555.4 19.2 550.5 16.0001 544.6 19.9001C544.6 19.9001 541.1 22.7001 541.1 28.9001V56.7001H520.2V3.80005H541.4V10.1001C541.4 10.1001 557.4 1.80006 565.4 3.50006C565.9 3.20006 574.2 4.20006 576.3 11.5001Z" fill="#0065A4"/>
<path d="M504.6 11.5V57.1H483.7C483.7 57.1 483.7 24.1 483.7 22.3C483.7 19.2 478.8 16 472.9 19.9C472.9 19.9 469.4 22.7 469.4 28.9V56.7H448.5V3.5H469.7V9.79999C469.7 9.79999 485.7 1.50001 493.7 3.20001C493.9 3.20001 502.6 4.2 504.6 11.5Z" fill="#0065A4"/>
<path d="M277.5 57.1V3.5H298.7V10.8C298.7 10.8 312.3 2.49999 320.3 3.79999C320.3 3.79999 326.9 4.09999 330.7 10.8C330.7 10.8 343.6 1.40001 353.7 4.20001C353.7 4.20001 362.4 6.60001 362.7 13.2V57H341.5V23.6C341.5 23.6 340.8 18 335.2 19.8C335.2 19.8 331 20.5 330.7 25.7V57H309.5V24.3C309.5 24.3 307.1 17.7 301.5 21.5C301.5 21.5 298.7 23.2 298.7 28.8V57H277.5V57.1Z" fill="#0065A4"/>
<path d="M100.8 57.0999H119.2C130.7 56.7999 130 46.9999 130 46.9999V3.19995H108.1V43.2C108.1 47.4 104.3 48.0999 102.5 48.3999C101.8 48.3999 101.5 48.3999 101.5 48.3999C101.5 48.3999 101.2 48.3999 100.5 48.3999C98.7999 48.3999 94.8999 47.7 94.8999 43.2V3.19995H72.9999V46.7C72.9999 46.7 72.2999 56.3999 83.7999 56.7999H102.2H100.8V57.0999Z" fill="#0065A4"/>
<path d="M243.1 21.8999H263.6V8.69997C263.6 8.69997 262.6 3.09996 254.9 3.09996C247.2 3.09996 222.9 3.09996 222.9 3.09996C222.9 3.09996 212.8 2.09995 211.4 9.39995V29.8999C211.4 29.8999 211.7 35.8 222.9 36.2H236.8C236.8 36.2 242.7 36.2 243.1 40C243.1 40 244.1 44.9 242.1 47C241.1 48 240.4 48.7 237.9 48.7C236.2 48.7 234.8 48 234.1 47C233.1 45.3 233.1 44.2 233.1 40.7H211.5V50.1C211.5 50.1 210.8 57.1 218.5 57.1H255.7C255.7 57.1 262.7 57.8 264.4 49.1V34.5C264.4 34.5 263.7 27.2 258.1 27.2C258.1 27.2 239.7 26.9 239.3 26.5C238.3 26.5 233 27.2 233.4 22.7V17.1C233.4 14 236.2 12.2 238.6 12.2C241.7 12.2 243.5 13.9 243.8 17.1L243.1 21.8999Z" fill="#0065A4"/>
<path d="M177 21.8999H197.5V8.69997C197.5 8.69997 196.5 3.09996 188.8 3.09996C181.1 3.09996 156.8 3.09996 156.8 3.09996C156.8 3.09996 146.7 2.09995 145.3 9.39995V29.8999C145.3 29.8999 145.6 35.8 156.8 36.2H170.7C170.7 36.2 176.6 36.2 177 40C177 40 178 44.9 176 47C175 48 174.3 48.7 171.8 48.7C170.1 48.7 168.7 48 168 47C167 45.3 167 44.2 167 40.7H145.4V50.1C145.4 50.1 144.7 57.1 152.4 57.1H189.6C189.6 57.1 196.6 57.8 198.3 49.1V34.5C198.3 34.5 197.6 27.2 192 27.2C192 27.2 173.6 26.9 173.2 26.5C172.2 26.5 166.9 27.2 167.3 22.7V17.1C167.3 14 170.1 12.2 172.5 12.2C175.6 12.2 177.4 13.9 177.7 17.1L177 21.8999Z" fill="#0065A4"/>
<path d="M29.2 34.7999H33.4C33.4 34.7999 35.7999 34.7999 35.7999 37.5999C35.7999 40.3999 35.7999 57.0999 35.7999 57.0999H58V3.19995H35.7999V22.2999C35.7999 22.2999 35.8 24.6999 33.4 25.0999C33.1 25.0999 29.2 25.0999 29.2 25.0999C29.2 25.0999 25.7 25.0999 25 25.0999C22.6 25.0999 22.5999 22.7 22.5999 22.7V3.19995H0.699951V56.7999H22.5999C22.5999 56.7999 22.5999 39.7999 22.5999 37.2999C22.5999 34.4999 25 34.4999 25 34.4999L29.2 34.7999Z" fill="#0065A4"/>
<path d="M591.6 17.4C596.5 17.4 600.6 13.6 600.6 8.70001C600.6 3.50001 596.4 0 591.6 0C586.8 0 582.6 3.80001 582.6 8.70001C582.9 13.6 586.7 17.4 591.6 17.4ZM584.6 8.39999C584.6 4.19999 587.7 1.10001 591.9 1.10001C595.7 1.10001 599.2 4.19999 599.2 8.39999C599.2 12.6 596.1 15.7 591.9 15.7C587.7 15.7 584.6 12.5 584.6 8.39999ZM589.9 9.10001H591.6L594.4 13.6H596.1L593.3 9.10001C594.7 8.80001 596.1 8.09999 596.1 6.29999C596.1 4.19999 595.1 3.5 592.6 3.5H588.8V13.6H590.2V9.10001H589.9ZM589.9 7.70001V4.5H592C593 4.5 594.1 4.79999 594.1 5.89999C594.1 7.59999 593.1 7.60001 591.7 7.60001H589.9V7.70001Z" fill="#0065A4"/>
<path d="M412.8 29.2001V12.9001C412.5 12.2001 412.1 10.5001 409 10.5001H406.2H403.4C401.7 10.5001 399.6 10.5001 399.6 13.3001V28.3001C399.6 32.5001 402 32.1001 402 32.1001H405.8H410C410.4 32.4001 412.8 32.4001 412.8 29.2001ZM421.5 3.20007C435.8 2.50007 434.7 12.9001 434.7 12.9001V13.6001V57.1001H412.8V45.6001C412.8 44.6001 412.1 43.2001 410 43.2001H406.2C406.2 43.2001 402.7 43.2001 402.4 43.2001C401.4 43.2001 399.6 44.2001 399.6 45.6001V57.4001H377.7V13.6001C377.7 13.6001 376.7 3.20006 390.6 3.90006H392.7H405.9H421.6V3.20007H421.5Z" fill="#0065A4"/>
</svg>
